#!OML:ASF I:\Random Stuff\random\construction\7_22_03\Session 2\subj1.ASF
:FULLY-SPECIFIED
:DEGREES
757
root -8.8897 17.7437 -0.441047 -188.68 67.2408 -193.63
lowerback 5.14743 -2.83592 1.55256
upperback 2.17085 -3.51183 4.10285
thorax -0.482599 -1.70302 3.54424
lowerneck -13.9936 -10.8123 -7.91537
upperneck 37.5737 -15.6065 8.97422
head 17.7195 -5.69485 2.5726
rclavicle 1.82882e-014 6.04305e-014
rhumerus -28.1576 9.72171 -69.6521
rradius 46.4161
rwrist 11.2815
rhand -29.9686 10.0254
rfingers 7.12502
rthumb -3.28716 -19.929
lclavicle 1.82882e-014 6.04305e-014
lhumerus -28.3908 -12.1897 96.1419
lradius 37.28
lwrist 12.4743
lhand -18.0005 51.9426
lfingers 7.12502
lthumb 8.26982 441.761
rfemur -8.05127 9.1884 21.2339
rtibia 19.8813
rfoot -11.9842 -23.5068
rtoes 1.30331
lfemur -16.7533 7.04196 -16.9359
ltibia 38.1374
lfoot 0.192955 -7.02821
ltoes -26.4265
758
root -8.89585 17.7443 -0.427622 -188.683 67.1116 -193.563
lowerback 5.20578 -2.81907 1.42887
upperback 2.22565 -3.49328 4.11784
thorax -0.451047 -1.69427 3.62953
lowerneck -13.878 -10.8792 -8.13629
upperneck 37.4309 -15.6949 9.128
head 17.6709 -5.75346 2.65928
rclavicle 6.52014e-014 9.54166e-015
rhumerus -28.1099 9.60172 -69.5833
rradius 46.3971
rwrist 11.1523
rhand -30.0788 9.92753
rfingers 7.12502
rthumb -3.39358 -20.0252
lclavicle 6.52014e-014 9.54166e-015
lhumerus -28.4308 -12.3914 96.0729
lradius 37.7089
lwrist 12.5492
lhand -18.0871 52.2877
lfingers 7.12502
lthumb 8.18626 442.109
rfemur -7.96539 9.23628 21.2793
rtibia 19.8297
rfoot -11.987 -23.6306
rtoes 1.56593
lfemur -16.7469 6.97108 -16.8999
ltibia 38.1323
lfoot 0.313705 -6.97467
ltoes -25.9048
759
root -8.90697 17.7455 -0.413736 -188.425 66.9931 -193.307
lowerback 5.23955 -2.81255 1.37891
upperback 2.24007 -3.48231 4.18929
thorax -0.44791 -1.68828 3.7325
lowerneck -13.7924 -10.9587 -8.39881
upperneck 37.3182 -15.7839 9.25871
head 17.6497 -5.8188 2.74142
rclavicle -3.85642e-014 -6.04305e-014
rhumerus -28.1016 9.64594 -69.4686
rradius 46.408
rwrist 10.6961
rhand -30.0419 10.2104
rfingers 7.12502
rthumb -3.35791 -19.7429
lclavicle -3.85642e-014 -6.04305e-014
lhumerus -28.3324 -12.2411 95.9406
lradius 37.8754
lwrist 12.3848
lhand -17.8791 52.1135
lfingers 7.12502
lthumb 8.38699 441.927
rfemur -8.00373 9.28201 21.3867
rtibia 19.774
rfoot -11.955 -23.7579
rtoes 1.94428
lfemur -16.8726 6.90174 -16.7932
ltibia 38.1394
lfoot 0.452472 -6.98543
ltoes -25.8214
760
root -8.92107 17.7463 -0.402433 -188.225 66.8474 -193.117
lowerback 5.25238 -2.70774 1.42971
upperback 2.19443 -3.34223 4.11775
thorax -0.517154 -1.61847 3.62452
lowerneck -13.4466 -11.135 -8.40531
upperneck 37.1507 -16.0839 9.38281
head 17.5295 -5.94072 2.74461
rclavicle 1.66979e-014 4.77083e-015
rhumerus -28.479 9.3325 -69.4787
rradius 46.4775
rwrist 10.2613
rhand -30.0355 10.8005
rfingers 7.12502
rthumb -3.35176 -19.1529
lclavicle 1.66979e-014 4.77083e-015
lhumerus -28.3681 -12.4785 95.7836
lradius 37.9516
lwrist 12.4114
lhand -17.9223 51.8564
lfingers 7.12502
lthumb 8.34534 441.671
rfemur -8.04554 9.30568 21.4478
rtibia 19.7177
rfoot -11.9513 -23.8964
rtoes 2.26002
lfemur -17.0163 6.87871 -16.7279
ltibia 38.1664
lfoot 0.578355 -7.09666
ltoes -26.2142
761
root -8.93391 17.7469 -0.391943 -188.169 66.7095 -193.058
lowerback 5.32391 -2.71278 1.36681
upperback 2.20689 -3.34772 4.14356
thorax -0.538552 -1.62105 3.69028
lowerneck -13.4205 -11.2164 -8.51896
upperneck 37.0735 -16.1723 9.37798
head 17.5056 -5.99971 2.7386
rclavicle -6.75868e-015 -3.65764e-014
rhumerus -28.5785 9.33908 -69.4235
rradius 46.5456
rwrist 10.1128
rhand -30.1624 11.4312
rfingers 7.12502
rthumb -3.47428 -18.5202
lclavicle -6.75868e-015 -3.65764e-014
lhumerus -28.2961 -12.2794 95.6523
lradius 38.0908
lwrist 12.5391
lhand -18.2315 51.846
lfingers 7.12502
lthumb 8.04687 441.673
rfemur -8.06253 9.34714 21.457
rtibia 19.6754
rfoot -11.9488 -24.0258
rtoes 2.73466
lfemur -17.1236 6.85709 -16.7128
ltibia 38.2037
lfoot 0.667216 -7.17627
ltoes -26.3583
762
root -8.9459 17.7465 -0.379485 -188.125 66.5633 -193.037
lowerback 5.36922 -2.63388 1.32883
upperback 2.15322 -3.24392 4.10907
thorax -0.624602 -1.56978 3.67413
lowerneck -13.1382 -11.3029 -8.54764
upperneck 36.9077 -16.3075 9.44347
head 17.3743 -6.06621 2.75179
rclavicle 4.96962e-014 -2.54444e-014
rhumerus -28.9044 9.03863 -69.3768
rradius 46.6425
rwrist 10.2312
rhand -30.274 11.9274
rfingers 7.12502
rthumb -3.58204 -18.0222
lclavicle 4.96962e-014 -2.54444e-014
lhumerus -28.4111 -12.3719 95.5641
lradius 38.2447
lwrist 12.7036
lhand -18.3513 51.924
lfingers 7.12502
lthumb 7.93124 441.755
rfemur -8.10856 9.39842 21.4547
rtibia 19.6465
rfoot -11.9262 -24.1842
rtoes 3.15149
lfemur -17.261 6.79537 -16.714
ltibia 38.2378
lfoot 0.746284 -7.23581
ltoes -26.3503
763
root -8.95905 17.7436 -0.366266 -187.958 66.3947 -192.886
lowerback 5.44793 -2.63858 1.30907
upperback 2.19443 -3.24653 4.1308
thorax -0.623368 -1.57029 3.71078
lowerneck -13.2749 -11.3163 -8.56782
upperneck 36.8227 -16.3362 9.48838
head 17.3749 -6.07627 2.75799
rclavicle 2.10712e-014 3.18055e-015
rhumerus -28.842 8.8828 -69.3141
rradius 46.6635
rwrist 10.3016
rhand -30.3514 12.3249
rfingers 7.12502
rthumb -3.65682 -17.6234
lclavicle 2.10712e-014 3.18055e-015
lhumerus -28.2738 -12.2149 95.3663
lradius 38.34
lwrist 12.8708
lhand -18.3183 52.0716
lfingers 7.12502
lthumb 7.96316 441.902
rfemur -8.17062 9.43449 21.5097
rtibia 19.6205
rfoot -11.8088 -24.4024
rtoes 2.88716
lfemur -17.4196 6.74484 -16.6597
ltibia 38.2584
lfoot 0.825654 -7.37334
ltoes -26.7588
764
root -8.97189 17.7417 -0.355419 -187.768 66.2489 -192.701
lowerback 5.50988 -2.66186 1.32584
upperback 2.15956 -3.27223 4.14392
thorax -0.692523 -1.58248 3.72076
lowerneck -13.2161 -11.3158 -8.65226
upperneck 36.8283 -16.3287 9.54195
head 17.3811 -6.07846 2.80121
rclavicle 2.38542e-014 1.90833e-014
rhumerus -28.9276 8.82804 -69.3234
rradius 46.7185
rwrist 10.1295
rhand -30.453 12.7954
rfingers 7.12502
rthumb -3.75493 -17.1513
lclavicle 2.38542e-014 1.90833e-014
lhumerus -28.3778 -12.0014 95.1723
lradius 38.4745
lwrist 13.0468
lhand -18.3091 52.097
lfingers 7.12502
lthumb 7.97199 441.927
rfemur -8.21582 9.42473 21.5776
rtibia 19.5823
rfoot -11.6827 -24.5658
rtoes 2.6296
lfemur -17.5463 6.7293 -16.5872
ltibia 38.262
lfoot 0.880373 -7.53461
ltoes -27.0109
765
root -8.98374 17.7434 -0.345496 -187.724 66.1344 -192.67
lowerback 5.55856 -2.68789 1.28928
upperback 2.16671 -3.3062 4.15218
thorax -0.707746 -1.59933 3.75414
lowerneck -13.3627 -11.3153 -8.6952
upperneck 36.8831 -16.3051 9.50457
head 17.4451 -6.07267 2.79053
rclavicle 5.32743e-014 1.27222e-014
rhumerus -28.9178 8.79695 -69.3468
rradius 46.8114
rwrist 9.63471
rhand -30.6643 13.3868
rfingers 7.12502
rthumb -3.95897 -16.5561
lclavicle 5.32743e-014 1.27222e-014
lhumerus -28.3423 -11.6167 94.959
lradius 38.413
lwrist 12.9751
lhand -18.2525 51.9185
lfingers 7.12502
lthumb 8.02667 441.746
rfemur -8.23617 9.46383 21.5737
rtibia 19.5226
rfoot -11.6881 -24.6776
rtoes 3.18805
lfemur -17.6308 6.67683 -16.5858
ltibia 38.2465
lfoot 0.895635 -7.60231
ltoes -26.8415
766
root -8.9967 17.7461 -0.334412 -187.661 66.0315 -192.632
lowerback 5.61759 -2.67746 1.30131
upperback 2.15019 -3.28947 4.1318
thorax -0.76048 -1.5907 3.72891
lowerneck -13.3573 -11.3315 -8.75228
upperneck 36.8175 -16.3227 9.53676
head 17.4217 -6.08783 2.80781
rclavicle -1.49089e-013 1.43125e-014
rhumerus -28.9666 8.62326 -69.3829
rradius 46.9409
rwrist 8.92847
rhand -30.8739 14.1941
rfingers 7.12502
rthumb -4.16139 -15.745
lclavicle -1.49089e-013 1.43125e-014
lhumerus -28.2418 -11.2672 94.7864
lradius 38.1207
lwrist 12.7078
lhand -18.2449 51.8539
lfingers 7.12502
lthumb 8.03397 441.681
rfemur -8.27868 9.47891 21.5728
rtibia 19.456
rfoot -11.6594 -24.7403
rtoes 3.51317
lfemur -17.7095 6.61066 -16.5876
ltibia 38.1977
lfoot 0.906146 -7.60623
ltoes -26.8299
